<svg width="12" height="17" viewBox="0 0 12 17" fill="none" xmlns="http://www.w3.org/2000/svg">
<path d="M1 15.2V14.127C1 13.5174 1.14194 12.9161 1.41459 12.3708V12.3708C1.79459 11.6108 2.41083 10.9946 3.17082 10.6146V10.6146C3.71611 10.3419 4.3174 10.2 4.92705 10.2H6H7.07295C7.6826 10.2 8.28389 10.3419 8.82918 10.6146V10.6146C9.58917 10.9946 10.2054 11.6108 10.5854 12.3708V12.3708C10.8581 12.9161 11 13.5174 11 14.127V15.2" stroke="#666666" stroke-width="2" stroke-linecap="round"/>
<path d="M7.19988 1.80001C7.71917 2.05966 8.14023 2.48072 8.39988 3.00001C8.77759 3.75543 8.77759 4.64459 8.39988 5.40001C8.14023 5.9193 7.71917 6.34037 7.19988 6.60001C6.44446 6.97772 5.5553 6.97772 4.79988 6.60001C4.28059 6.34037 3.85952 5.9193 3.59988 5.40001C3.22217 4.64459 3.22217 3.75543 3.59988 3.00001C3.85952 2.48072 4.28059 2.05966 4.79988 1.80001C5.5553 1.4223 6.44446 1.4223 7.19988 1.80001Z" stroke="#666666" stroke-width="2"/>
</svg>
