<svg width="16" height="19" viewBox="0 0 16 19" fill="none" xmlns="http://www.w3.org/2000/svg">
<path d="M15 8.5C15 7.94772 14.5523 7.5 14 7.5C13.4477 7.5 13 7.94772 13 8.5H15ZM7.5 6C8.05228 6 8.5 5.55228 8.5 5C8.5 4.44772 8.05228 4 7.5 4V6ZM13 8.5V16H15V8.5H13ZM12 17H3V19H12V17ZM2 16V7H0V16H2ZM3 6H7.5V4H3V6ZM3 17C2.44772 17 2 16.5523 2 16H0C0 17.6569 1.34315 19 3 19V17ZM13 16C13 16.5523 12.5523 17 12 17V19C13.6569 19 15 17.6569 15 16H13ZM2 7C2 6.44772 2.44772 6 3 6V4C1.34315 4 0 5.34315 0 7H2Z" fill="#222222"/>
<path d="M7 12L14 2" stroke="#222222" stroke-width="3" stroke-linecap="round"/>
</svg>
