<svg width="100" height="100" viewBox="0 0 100 100" fill="none" xmlns="http://www.w3.org/2000/svg">
<circle cx="50" cy="50" r="50" fill="black"/>
<path d="M25.4988 49.548C26.0348 49.58 26.3028 49.82 26.3028 50.268C26.3028 50.548 26.1948 50.756 25.9788 50.892C25.7628 51.028 25.4548 51.084 25.0548 51.06L24.7188 51.036C23.9988 50.98 23.4508 50.764 23.0748 50.388C22.7068 50.004 22.5228 49.472 22.5228 48.792V46.668H22.1748C21.5348 46.668 21.2148 46.404 21.2148 45.876C21.2148 45.356 21.5348 45.096 22.1748 45.096H22.5228V44.316C22.5228 44.012 22.6188 43.772 22.8108 43.596C23.0028 43.412 23.2628 43.32 23.5908 43.32C23.9188 43.32 24.1788 43.412 24.3708 43.596C24.5628 43.772 24.6588 44.012 24.6588 44.316V45.096H25.3188C25.9588 45.096 26.2788 45.356 26.2788 45.876C26.2788 46.404 25.9588 46.668 25.3188 46.668H24.6588V48.972C24.6588 49.124 24.7028 49.252 24.7908 49.356C24.8868 49.46 25.0068 49.516 25.1508 49.524L25.4988 49.548ZM30.8901 44.952C31.5781 44.952 32.0901 45.164 32.4261 45.588C32.7621 46.004 32.9301 46.64 32.9301 47.496V50.088C32.9301 50.392 32.8341 50.632 32.6421 50.808C32.4501 50.984 32.1901 51.072 31.8621 51.072C31.5341 51.072 31.2741 50.984 31.0821 50.808C30.8901 50.632 30.7941 50.392 30.7941 50.088V47.448C30.7941 46.872 30.5461 46.584 30.0501 46.584C29.7301 46.584 29.4741 46.688 29.2821 46.896C29.0981 47.096 29.0061 47.368 29.0061 47.712V50.088C29.0061 50.392 28.9101 50.632 28.7181 50.808C28.5261 50.984 28.2661 51.072 27.9381 51.072C27.6101 51.072 27.3501 50.984 27.1581 50.808C26.9661 50.632 26.8701 50.392 26.8701 50.088V43.44C26.8701 43.16 26.9701 42.932 27.1701 42.756C27.3701 42.572 27.6341 42.48 27.9621 42.48C28.2741 42.48 28.5261 42.564 28.7181 42.732C28.9101 42.9 29.0061 43.124 29.0061 43.404V45.804C29.2221 45.524 29.4901 45.312 29.8101 45.168C30.1301 45.024 30.4901 44.952 30.8901 44.952ZM38.9357 49.104C39.1197 49.104 39.2677 49.176 39.3797 49.32C39.4997 49.464 39.5597 49.652 39.5597 49.884C39.5597 50.204 39.4037 50.448 39.0917 50.616C38.8197 50.752 38.4957 50.868 38.1197 50.964C37.7517 51.052 37.4117 51.096 37.0997 51.096C36.4437 51.096 35.8717 50.972 35.3837 50.724C34.8957 50.476 34.5197 50.12 34.2557 49.656C33.9917 49.192 33.8597 48.648 33.8597 48.024C33.8597 47.432 33.9837 46.904 34.2317 46.44C34.4877 45.968 34.8397 45.604 35.2877 45.348C35.7437 45.084 36.2557 44.952 36.8237 44.952C37.3757 44.952 37.8597 45.072 38.2757 45.312C38.6917 45.552 39.0117 45.892 39.2357 46.332C39.4677 46.772 39.5837 47.288 39.5837 47.88C39.5837 48.064 39.5397 48.208 39.4517 48.312C39.3717 48.408 39.2517 48.456 39.0917 48.456H35.9237C35.9797 48.84 36.1037 49.116 36.2957 49.284C36.4877 49.452 36.7717 49.536 37.1477 49.536C37.3477 49.536 37.5317 49.516 37.6997 49.476C37.8677 49.428 38.0557 49.364 38.2637 49.284C38.3837 49.236 38.4997 49.196 38.6117 49.164C38.7317 49.124 38.8397 49.104 38.9357 49.104ZM36.8837 46.392C36.6037 46.392 36.3797 46.484 36.2117 46.668C36.0437 46.844 35.9437 47.104 35.9117 47.448H37.7957C37.7477 46.744 37.4437 46.392 36.8837 46.392ZM46.3192 51.096C45.7832 51.096 45.3312 51.056 44.9632 50.976C44.5952 50.896 44.2712 50.768 43.9912 50.592C43.8792 50.536 43.7912 50.44 43.7272 50.304C43.6632 50.168 43.6312 50.016 43.6312 49.848C43.6312 49.632 43.6872 49.456 43.7992 49.32C43.9192 49.176 44.0672 49.104 44.2432 49.104C44.3632 49.104 44.4752 49.12 44.5792 49.152C44.6832 49.176 44.8112 49.22 44.9632 49.284C45.2192 49.372 45.4432 49.44 45.6352 49.488C45.8352 49.536 46.0872 49.56 46.3912 49.56C46.6072 49.56 46.7752 49.532 46.8952 49.476C47.0232 49.412 47.0872 49.324 47.0872 49.212C47.0872 49.124 47.0552 49.056 46.9912 49.008C46.9352 48.96 46.8232 48.916 46.6552 48.876C46.4872 48.828 46.2032 48.764 45.8032 48.684C45.0912 48.548 44.5752 48.344 44.2552 48.072C43.9432 47.792 43.7872 47.4 43.7872 46.896C43.7872 46.528 43.8992 46.196 44.1232 45.9C44.3552 45.604 44.6712 45.372 45.0712 45.204C45.4712 45.036 45.9192 44.952 46.4152 44.952C46.7752 44.952 47.1232 44.996 47.4592 45.084C47.8032 45.172 48.1072 45.296 48.3712 45.456C48.6192 45.6 48.7432 45.832 48.7432 46.152C48.7432 46.376 48.6832 46.564 48.5632 46.716C48.4432 46.868 48.2952 46.944 48.1192 46.944C47.9112 46.944 47.6632 46.876 47.3752 46.74C47.1832 46.652 47.0112 46.588 46.8592 46.548C46.7152 46.5 46.5432 46.476 46.3432 46.476C46.1432 46.476 45.9872 46.508 45.8752 46.572C45.7632 46.628 45.7072 46.712 45.7072 46.824C45.7072 46.952 45.7832 47.052 45.9352 47.124C46.0952 47.196 46.4072 47.276 46.8712 47.364C47.6472 47.5 48.1952 47.708 48.5152 47.988C48.8352 48.26 48.9952 48.656 48.9952 49.176C48.9952 49.76 48.7512 50.228 48.2632 50.58C47.7832 50.924 47.1352 51.096 46.3192 51.096ZM54.674 49.104C54.858 49.104 55.006 49.176 55.118 49.32C55.238 49.464 55.298 49.652 55.298 49.884C55.298 50.204 55.142 50.448 54.83 50.616C54.558 50.752 54.234 50.868 53.858 50.964C53.49 51.052 53.15 51.096 52.838 51.096C52.182 51.096 51.61 50.972 51.122 50.724C50.634 50.476 50.258 50.12 49.994 49.656C49.73 49.192 49.598 48.648 49.598 48.024C49.598 47.432 49.722 46.904 49.97 46.44C50.226 45.968 50.578 45.604 51.026 45.348C51.482 45.084 51.994 44.952 52.562 44.952C53.114 44.952 53.598 45.072 54.014 45.312C54.43 45.552 54.75 45.892 54.974 46.332C55.206 46.772 55.322 47.288 55.322 47.88C55.322 48.064 55.278 48.208 55.19 48.312C55.11 48.408 54.99 48.456 54.83 48.456H51.662C51.718 48.84 51.842 49.116 52.034 49.284C52.226 49.452 52.51 49.536 52.886 49.536C53.086 49.536 53.27 49.516 53.438 49.476C53.606 49.428 53.794 49.364 54.002 49.284C54.122 49.236 54.238 49.196 54.35 49.164C54.47 49.124 54.578 49.104 54.674 49.104ZM52.622 46.392C52.342 46.392 52.118 46.484 51.95 46.668C51.782 46.844 51.682 47.104 51.65 47.448H53.534C53.486 46.744 53.182 46.392 52.622 46.392ZM60.2679 44.952C60.9719 44.952 61.4959 45.164 61.8399 45.588C62.1839 46.004 62.3559 46.64 62.3559 47.496V50.088C62.3559 50.392 62.2599 50.632 62.0679 50.808C61.8759 50.984 61.6159 51.072 61.2879 51.072C60.9599 51.072 60.6999 50.984 60.5079 50.808C60.3159 50.632 60.2199 50.392 60.2199 50.088V47.592C60.2199 47.24 60.1559 46.984 60.0279 46.824C59.9079 46.664 59.7239 46.584 59.4759 46.584C59.1559 46.584 58.8999 46.688 58.7079 46.896C58.5239 47.096 58.4319 47.368 58.4319 47.712V50.088C58.4319 50.392 58.3359 50.632 58.1439 50.808C57.9519 50.984 57.6919 51.072 57.3639 51.072C57.0359 51.072 56.7759 50.984 56.5839 50.808C56.3919 50.632 56.2959 50.392 56.2959 50.088V45.936C56.2959 45.656 56.3959 45.428 56.5959 45.252C56.7959 45.068 57.0559 44.976 57.3759 44.976C57.6799 44.976 57.9199 45.06 58.0959 45.228C58.2799 45.396 58.3719 45.616 58.3719 45.888C58.5799 45.584 58.8479 45.352 59.1759 45.192C59.5039 45.032 59.8679 44.952 60.2679 44.952ZM65.8895 51.096C65.3535 51.096 64.9015 51.056 64.5335 50.976C64.1655 50.896 63.8415 50.768 63.5615 50.592C63.4495 50.536 63.3615 50.44 63.2975 50.304C63.2335 50.168 63.2015 50.016 63.2015 49.848C63.2015 49.632 63.2575 49.456 63.3695 49.32C63.4895 49.176 63.6375 49.104 63.8135 49.104C63.9335 49.104 64.0455 49.12 64.1495 49.152C64.2535 49.176 64.3815 49.22 64.5335 49.284C64.7895 49.372 65.0135 49.44 65.2055 49.488C65.4055 49.536 65.6575 49.56 65.9615 49.56C66.1775 49.56 66.3455 49.532 66.4655 49.476C66.5935 49.412 66.6575 49.324 66.6575 49.212C66.6575 49.124 66.6255 49.056 66.5615 49.008C66.5055 48.96 66.3935 48.916 66.2255 48.876C66.0575 48.828 65.7735 48.764 65.3735 48.684C64.6615 48.548 64.1455 48.344 63.8255 48.072C63.5135 47.792 63.3575 47.4 63.3575 46.896C63.3575 46.528 63.4695 46.196 63.6935 45.9C63.9255 45.604 64.2415 45.372 64.6415 45.204C65.0415 45.036 65.4895 44.952 65.9855 44.952C66.3455 44.952 66.6935 44.996 67.0295 45.084C67.3735 45.172 67.6775 45.296 67.9415 45.456C68.1895 45.6 68.3135 45.832 68.3135 46.152C68.3135 46.376 68.2535 46.564 68.1335 46.716C68.0135 46.868 67.8655 46.944 67.6895 46.944C67.4815 46.944 67.2335 46.876 66.9455 46.74C66.7535 46.652 66.5815 46.588 66.4295 46.548C66.2855 46.5 66.1135 46.476 65.9135 46.476C65.7135 46.476 65.5575 46.508 65.4455 46.572C65.3335 46.628 65.2775 46.712 65.2775 46.824C65.2775 46.952 65.3535 47.052 65.5055 47.124C65.6655 47.196 65.9775 47.276 66.4415 47.364C67.2175 47.5 67.7655 47.708 68.0855 47.988C68.4055 48.26 68.5655 48.656 68.5655 49.176C68.5655 49.76 68.3215 50.228 67.8335 50.58C67.3535 50.924 66.7055 51.096 65.8895 51.096ZM74.2443 49.104C74.4283 49.104 74.5763 49.176 74.6883 49.32C74.8083 49.464 74.8683 49.652 74.8683 49.884C74.8683 50.204 74.7123 50.448 74.4003 50.616C74.1283 50.752 73.8043 50.868 73.4283 50.964C73.0603 51.052 72.7203 51.096 72.4083 51.096C71.7523 51.096 71.1803 50.972 70.6923 50.724C70.2043 50.476 69.8283 50.12 69.5643 49.656C69.3003 49.192 69.1683 48.648 69.1683 48.024C69.1683 47.432 69.2923 46.904 69.5403 46.44C69.7963 45.968 70.1483 45.604 70.5963 45.348C71.0523 45.084 71.5643 44.952 72.1323 44.952C72.6843 44.952 73.1683 45.072 73.5843 45.312C74.0003 45.552 74.3203 45.892 74.5443 46.332C74.7763 46.772 74.8923 47.288 74.8923 47.88C74.8923 48.064 74.8483 48.208 74.7603 48.312C74.6803 48.408 74.5603 48.456 74.4003 48.456H71.2323C71.2883 48.84 71.4123 49.116 71.6043 49.284C71.7963 49.452 72.0803 49.536 72.4563 49.536C72.6563 49.536 72.8403 49.516 73.0083 49.476C73.1763 49.428 73.3643 49.364 73.5723 49.284C73.6923 49.236 73.8083 49.196 73.9203 49.164C74.0403 49.124 74.1483 49.104 74.2443 49.104ZM72.1923 46.392C71.9123 46.392 71.6883 46.484 71.5203 46.668C71.3523 46.844 71.2523 47.104 71.2203 47.448H73.1043C73.0563 46.744 72.7523 46.392 72.1923 46.392ZM76.9342 51.072C76.6302 51.072 76.3742 50.992 76.1662 50.832C75.9662 50.664 75.8662 50.416 75.8662 50.088V45.96C75.8662 45.632 75.9662 45.388 76.1662 45.228C76.3742 45.06 76.6302 44.976 76.9342 44.976C77.2382 44.976 77.4902 45.06 77.6902 45.228C77.8982 45.388 78.0022 45.632 78.0022 45.96V50.088C78.0022 50.416 77.8982 50.664 77.6902 50.832C77.4902 50.992 77.2382 51.072 76.9342 51.072ZM76.9342 44.136C76.5742 44.136 76.2862 44.044 76.0702 43.86C75.8622 43.668 75.7582 43.416 75.7582 43.104C75.7582 42.792 75.8622 42.544 76.0702 42.36C76.2862 42.176 76.5742 42.084 76.9342 42.084C77.2862 42.084 77.5702 42.176 77.7862 42.36C78.0022 42.544 78.1102 42.792 78.1102 43.104C78.1102 43.416 78.0022 43.668 77.7862 43.86C77.5782 44.044 77.2942 44.136 76.9342 44.136Z" fill="white"/>
<path d="M49.5269 23.2541C49.8223 23.0954 50.1777 23.0954 50.4731 23.2541L73.8987 35.8345C74.7861 36.3111 74.4949 37.6443 73.489 37.6985C68.0771 37.99 57.5349 38.5 50 38.5C42.4651 38.5 31.9229 37.99 26.511 37.6985C25.5051 37.6443 25.2139 36.3111 26.1013 35.8345L49.5269 23.2541Z" fill="#D3C787"/>
<path d="M50 26.9693C50 25.9299 52.5867 24.3892 53.5025 24.881L73.8986 35.8345C74.7861 36.3111 74.4949 37.6443 73.489 37.6985C68.3125 37.9774 58.4425 38.456 50.9999 38.4972C50.4476 38.5002 50 38.0431 50 37.4908C50 32.411 50 29.1119 50 26.9693Z" fill="#C4B87C"/>
<path fill-rule="evenodd" clip-rule="evenodd" d="M47.8259 60C45.6515 60 43.6989 61.3316 42.905 63.356L42.8749 63.4328C42.4078 64.6239 42.4078 65.9475 42.8749 67.1386L43.3501 68.3503C44.481 71.234 43.6555 74.5177 41.2953 76.5239C40.4537 77.2393 39.1915 77.1369 38.4761 76.2953C37.7607 75.4537 37.8631 74.1915 38.7047 73.4761C39.7631 72.5765 40.1333 71.1039 39.6262 69.8106L39.151 68.599C38.3158 66.4691 38.3158 64.1023 39.151 61.9724L39.1812 61.8956C40.5758 58.3394 44.006 56 47.8259 56H52.1741C55.994 56 59.4242 58.3394 60.8188 61.8956L60.849 61.9724V61.9724C61.6842 64.1023 61.6842 66.4691 60.849 68.599L60.3738 69.8106C59.8667 71.1039 60.2369 72.5765 61.2953 73.4761C62.1369 74.1915 62.2392 75.4537 61.5239 76.2953C60.8085 77.1369 59.5463 77.2393 58.7047 76.5239C56.3445 74.5177 55.519 71.234 56.6499 68.3503L57.1251 67.1386C57.5922 65.9475 57.5922 64.6239 57.1251 63.4328L57.0949 63.356V63.356C56.3011 61.3316 54.3485 60 52.1741 60H47.8259Z" fill="#AEAEAE"/>
</svg>
